HIERARCHY
ROOT Hips
{
	OFFSET 0.00 0.00 0.00
	CHANNELS 6 Xposition Yposition Zposition Zrotation Yrotation Xrotation
	JOINT Spine
	{
		OFFSET	0.0000	5.2453	0.2588
		CHANNELS 3 Zrotation Yrotation Xrotation
		JOINT Spine1
		{
			OFFSET	-0.0314	11.0449	-0.6976
			CHANNELS 3 Zrotation Yrotation Xrotation
			JOINT Spine2
			{
				OFFSET	-0.0359	8.0689	-1.0877
				CHANNELS 3 Zrotation Yrotation Xrotation
				JOINT Neck
				{
					OFFSET	-0.0403	18.9195	-3.7361
					CHANNELS 3 Zrotation Yrotation Xrotation
					JOINT Head
					{
						OFFSET	0.0000	8.6730	3.3193
						CHANNELS 3 Zrotation Yrotation Xrotation
						End Site
						{
							OFFSET 0.0000 17.1839 4.9485
						}
					}
				}
				JOINT RightShoulder
				{
					OFFSET	-6.5767	15.0245	-2.1196
					CHANNELS 3 Zrotation Yrotation Xrotation
					JOINT RightArm
					{
						OFFSET	-8.3247	-3.0411	-2.5696
						CHANNELS 3 Zrotation Yrotation Xrotation
						JOINT RightForeArm
						{
							OFFSET	-17.5494	-16.9552	2.9006
							CHANNELS 3 Zrotation Yrotation Xrotation
							JOINT RightHand
							{
								OFFSET	-16.5646	-14.7053	6.5438
								CHANNELS 3 Zrotation Yrotation Xrotation
								JOINT RightHandThumb1
								{
									OFFSET	-0.9219	-2.3990	3.6223
									CHANNELS 3 Zrotation Yrotation Xrotation
									JOINT RightHandThumb2
									{
										OFFSET	-0.5573	-1.6299	2.4846
										CHANNELS 3 Zrotation Yrotation Xrotation
										JOINT RightHandThumb3
										{
											OFFSET	-0.8350	-2.6570	2.8843
											CHANNELS 3 Zrotation Yrotation Xrotation
											End Site
											{
												OFFSET -0.4639 -2.1814 2.3905
											}
										}
									}
								}
								JOINT RightHandIndex1
								{
									OFFSET	-6.5668	-6.3646	6.7189
									CHANNELS 3 Zrotation Yrotation Xrotation
									JOINT RightHandIndex2
									{
										OFFSET	-1.3621	-1.8237	1.2457
										CHANNELS 3 Zrotation Yrotation Xrotation
										JOINT RightHandIndex3
										{
											OFFSET	-0.7826	-1.5416	0.9441
											CHANNELS 3 Zrotation Yrotation Xrotation
											End Site
											{
												OFFSET -1.0583 -1.9816 1.1235
											}
										}
									}
								}
								JOINT RightHandMiddle1
								{
									OFFSET	-7.2081	-7.5143	4.7566
									CHANNELS 3 Zrotation Yrotation Xrotation
									JOINT RightHandMiddle2
									{
										OFFSET	-1.4024	-2.3481	0.9100
										CHANNELS 3 Zrotation Yrotation Xrotation
										JOINT RightHandMiddle3
										{
											OFFSET	-0.7867	-1.7609	0.7118
											CHANNELS 3 Zrotation Yrotation Xrotation
											End Site
											{
												OFFSET -0.6117 -2.5008 0.9555
											}
										}
									}
								}
								JOINT RightHandRing1
								{
									OFFSET	-7.1245	-7.8267	2.3635
									CHANNELS 3 Zrotation Yrotation Xrotation
									JOINT RightHandRing2
									{
										OFFSET	-1.1361	-2.6980	0.7249
										CHANNELS 3 Zrotation Yrotation Xrotation
										JOINT RightHandRing3
										{
											OFFSET	-0.8342	-2.0102	0.5016
											CHANNELS 3 Zrotation Yrotation Xrotation
											End Site
											{
												OFFSET -0.5888 -2.1490 0.5881
											}
										}
									}
								}
								JOINT RightHandPinky1
								{
									OFFSET	-6.2299	-8.3643	0.5174
									CHANNELS 3 Zrotation Yrotation Xrotation
									JOINT RightHandPinky2
									{
										OFFSET	-0.9194	-2.5567	0.3358
										CHANNELS 3 Zrotation Yrotation Xrotation
										JOINT RightHandPinky3
										{
											OFFSET	-0.3108	-1.3823	0.2677
											CHANNELS 3 Zrotation Yrotation Xrotation
											End Site
											{
												OFFSET -0.2542 -2.0379 0.4259
											}
										}
									}
								}
							}
						}
					}
				}
				JOINT LeftShoulder
				{
					OFFSET	6.7112	15.0245	-2.1196
					CHANNELS 3 Zrotation Yrotation Xrotation
					JOINT LeftArm
					{
						OFFSET	8.3247	-3.0411	-2.5696
						CHANNELS 3 Zrotation Yrotation Xrotation
						JOINT LeftForeArm
						{
							OFFSET	17.5494	-16.9552	2.9006
							CHANNELS 3 Zrotation Yrotation Xrotation
							JOINT LeftHand
							{
								OFFSET	16.5646	-14.7053	6.5438
								CHANNELS 3 Zrotation Yrotation Xrotation
								JOINT LeftHandThumb1
								{
									OFFSET	0.9219	-2.3990	3.6223
									CHANNELS 3 Zrotation Yrotation Xrotation
									JOINT LeftHandThumb2
									{
										OFFSET	0.5573	-1.6299	2.4846
										CHANNELS 3 Zrotation Yrotation Xrotation
										JOINT LeftHandThumb3
										{
											OFFSET	0.8350	-2.6570	2.8843
											CHANNELS 3 Zrotation Yrotation Xrotation
											End Site
											{
												OFFSET 0.4639 -2.1814 2.3905
											}
										}
									}
								}
								JOINT LeftHandIndex1
								{
									OFFSET	6.5668	-6.3646	6.7189
									CHANNELS 3 Zrotation Yrotation Xrotation
									JOINT LeftHandIndex2
									{
										OFFSET	1.3621	-1.8237	1.2457
										CHANNELS 3 Zrotation Yrotation Xrotation
										JOINT LeftHandIndex3
										{
											OFFSET	0.7826	-1.5416	0.9441
											CHANNELS 3 Zrotation Yrotation Xrotation
											End Site
											{
												OFFSET 1.0583 -1.9816 1.1235
											}
										}
									}
								}
								JOINT LeftHandMiddle1
								{
									OFFSET	7.2081	-7.5143	4.7566
									CHANNELS 3 Zrotation Yrotation Xrotation
									JOINT LeftHandMiddle2
									{
										OFFSET	1.4024	-2.3481	0.9100
										CHANNELS 3 Zrotation Yrotation Xrotation
										JOINT LeftHandMiddle3
										{
											OFFSET	0.7867	-1.7609	0.7118
											CHANNELS 3 Zrotation Yrotation Xrotation
											End Site
											{
												OFFSET 0.6117 -2.5008 0.9555
											}
										}
									}
								}
								JOINT LeftHandRing1
								{
									OFFSET	7.1245	-7.8267	2.3635
									CHANNELS 3 Zrotation Yrotation Xrotation
									JOINT LeftHandRing2
									{
										OFFSET	1.1361	-2.6980	0.7249
										CHANNELS 3 Zrotation Yrotation Xrotation
										JOINT LeftHandRing3
										{
											OFFSET	0.8342	-2.0102	0.5016
											CHANNELS 3 Zrotation Yrotation Xrotation
											End Site
											{
												OFFSET 0.5888 -2.1490 0.5881
											}
										}
									}
								}
								JOINT LeftHandPinky1
								{
									OFFSET	6.2299	-8.3643	0.5174
									CHANNELS 3 Zrotation Yrotation Xrotation
									JOINT LeftHandPinky2
									{
										OFFSET	0.9194	-2.5567	0.3358
										CHANNELS 3 Zrotation Yrotation Xrotation
										JOINT LeftHandPinky3
										{
											OFFSET	0.3108	-1.3823	0.2677
											CHANNELS 3 Zrotation Yrotation Xrotation
											End Site
											{
												OFFSET 0.2542 -2.0379 0.4259
											}
										}
									}
								}
							}
						}
					}
				}
			}
		}
	}
	JOINT LeftUpLeg
	{
		OFFSET	9.6888	-5.6852	-1.6886
		CHANNELS 3 Zrotation Yrotation Xrotation
		JOINT LeftLeg
		{
			OFFSET	0.3500	-43.1158	2.0924
			CHANNELS 3 Zrotation Yrotation Xrotation
			JOINT LeftFoot
			{
				OFFSET	1.6118	-40.8061	-2.6433
				CHANNELS 3 Zrotation Yrotation Xrotation
				JOINT LeftToeBase
				{
					OFFSET	0.8620	-15.6664	8.6141
					CHANNELS 3 Zrotation Yrotation Xrotation
					End Site
					{
						OFFSET 2.0076 -0.0546 13.3237
					}
				}
			}
		}
	}
	JOINT RightUpLeg
	{
		OFFSET	-9.6888	-5.6852	-1.6886
		CHANNELS 3 Zrotation Yrotation Xrotation
		JOINT RightLeg
		{
			OFFSET	-0.3500	-43.1158	2.0924
			CHANNELS 3 Zrotation Yrotation Xrotation
			JOINT RightFoot
			{
				OFFSET	-1.6118	-40.8061	-2.6433
				CHANNELS 3 Zrotation Yrotation Xrotation
				JOINT RightToeBase
				{
					OFFSET	-0.8620	-15.6664	8.6141
					CHANNELS 3 Zrotation Yrotation Xrotation
					End Site
					{
						OFFSET -2.0076 -0.0546 13.3237
					}
				}
			}
		}
	}
}
MOTION
Frames: 5
Frame Time: 0.0333333
-1.2170 103.4951 1.7337 -1.2901 -0.0479 -0.3792 0.2164 -0.2619 -0.0866 0.0256 -2.0667 -0.4204 0.0272 -2.0605 -0.4245 -1.3394 1.6039 -1.6877 2.2101 -0.6202 9.2690 -14.2258 -2.4738 0.5663 42.8682 11.4651 18.9219 0.8812 13.3337 -11.5622 -8.7980 -4.2234 25.2929 -2.0034 -8.9879 22.2161 -3.4492 6.4800 -5.4392 -4.9066 -4.8299 -1.4522 2.4865 -3.2885 6.1938 25.6996 10.2501 8.8694 9.5971 5.2466 1.0306 5.3878 4.0392 -0.2747 18.5860 4.3381 4.9434 -2.5802 -2.9241 -0.4913 7.0048 8.6571 -6.5939 16.9943 3.9017 1.3465 1.8950 -2.3954 1.3883 13.0543 13.6866 -9.1918 7.8734 -0.1280 3.9157 1.7344 0.1134 1.2441 9.9685 12.0693 1.0749 -34.9978 -7.9995 18.5906 -0.1496 -16.2707 -14.4430 -1.1857 -4.1962 33.4193 -6.0236 14.5261 2.9182 3.3625 1.6917 6.3576 4.8323 5.4173 1.5576 -12.9700 -3.9099 4.6148 -20.1819 -8.5248 6.5737 -12.1782 -6.2994 1.8971 -13.9508 -10.3560 -3.1282 -12.3009 -2.7514 3.5971 -5.0347 -1.5183 1.2341 -12.4738 -12.3261 -8.9176 -13.5917 -3.2585 0.8097 -4.0227 -0.1557 2.1990 -18.3119 -15.8448 -8.7930 -9.1194 -2.0002 0.3945 -2.2098 -0.2001 1.2656 1.9557 3.3071 -7.6129 3.8611 9.2545 19.3902 -3.5834 2.1705 -10.7189 -0.0000 0.0000 -0.0498 -1.8049 -13.0981 -7.4586 -2.1233 -5.0987 15.2394 4.6783 -3.6565 -6.2724 -0.0000 0.0000 -0.1142 
-0.8125 103.4671 1.6766 -1.3993 -0.2909 -0.4474 0.2137 -0.2457 -0.0441 -0.0007 -2.0459 -0.3529 0.0023 -2.0401 -0.3564 -1.2601 1.5477 -1.6626 2.3106 -0.6737 9.3533 -14.0692 -2.3043 0.5546 42.8071 11.4523 18.6664 0.8901 13.2931 -11.5232 -8.7956 -4.2597 25.1916 -2.1614 -8.9503 22.4844 -3.3178 6.4361 -5.7346 -4.8991 -4.7933 -1.5824 2.4826 -3.3450 6.2712 25.8871 10.3052 8.9490 9.5505 5.2273 1.0151 5.8823 4.1760 -0.0545 18.5169 4.3214 4.9279 -2.6955 -3.0247 -0.5244 7.4099 8.7579 -6.3706 16.8447 3.8738 1.3228 1.8074 -2.4809 1.3600 13.6182 13.8237 -8.8879 7.9268 -0.1221 3.9187 1.5286 0.0766 1.2312 9.8470 12.0412 1.0633 -34.8717 -8.4064 18.5934 -0.1795 -16.1631 -14.3354 -1.2764 -3.9993 33.4137 -6.0202 14.5352 2.9295 3.3493 1.7004 6.3304 4.8304 5.4124 1.5408 -13.1206 -3.9190 4.7229 -20.2533 -8.5491 6.6020 -12.3017 -6.3483 1.9400 -14.0959 -10.3900 -3.0598 -12.4128 -2.7813 3.6192 -4.9862 -1.5027 1.2253 -12.5560 -12.3665 -8.9214 -13.6868 -3.2772 0.8237 -3.9994 -0.1509 2.1965 -18.6342 -15.9688 -8.7603 -9.3197 -2.0350 0.4128 -2.2106 -0.2002 1.2656 1.8227 3.1534 -7.7112 3.8390 9.2495 19.7671 -3.3775 2.5543 -10.9916 -0.0000 -0.0000 -0.0665 -1.9323 -13.2756 -7.4109 -2.1288 -4.9511 15.0915 4.8671 -3.4322 -6.0245 -0.0000 0.0000 -0.2383 
-0.3973 103.4216 1.6089 -1.4977 -0.5383 -0.5319 0.2039 -0.2231 0.0108 -0.0330 -2.0246 -0.2655 -0.0283 -2.0194 -0.2682 -1.1734 1.4835 -1.6517 2.4435 -0.7475 9.3938 -13.8685 -2.0463 0.5403 42.6963 11.5234 18.3800 0.9024 13.2372 -11.4693 -8.7751 -4.3771 25.0766 -2.2527 -8.8897 22.7223 -3.2118 6.4000 -5.9753 -4.8940 -4.7636 -1.6919 2.5372 -3.3658 6.3470 26.0750 10.3601 9.0288 9.4835 5.1995 0.9929 6.0374 4.1954 0.0536 18.7473 4.3770 4.9796 -2.7616 -3.0427 -0.5322 7.5363 8.7712 -6.2599 17.1088 3.9231 1.3648 1.7773 -2.4856 1.3575 13.8142 13.8569 -8.7447 8.1265 -0.1000 3.9297 1.4839 0.0686 1.2284 9.7174 11.9357 1.0460 -34.7724 -9.0005 18.6636 -0.2162 -16.0298 -14.2023 -1.3742 -3.7139 33.3193 -6.0178 14.5323 2.9178 3.3525 1.6968 6.3399 4.8276 5.4142 1.5581 -13.2313 -3.9352 4.7889 -20.3684 -8.5881 6.6479 -12.4560 -6.4092 1.9938 -14.1986 -10.4192 -3.0198 -12.5603 -2.8207 3.6483 -4.9498 -1.4911 1.2188 -12.6113 -12.3960 -8.9291 -13.8007 -3.2996 0.8405 -3.9816 -0.1473 2.1947 -18.9280 -16.0758 -8.7155 -9.5344 -2.0721 0.4326 -2.2106 -0.2002 1.2657 1.6644 3.0514 -7.8405 3.8476 9.2358 20.2246 -3.1746 2.8888 -11.2946 0.0000 0.0000 -0.0844 -2.0812 -13.4588 -7.4142 -2.1433 -4.7928 15.0644 5.0698 -3.1934 -5.8263 -0.0000 -0.0000 -0.2934 
0.0266 103.3604 1.5337 -1.5910 -0.7815 -0.6283 0.1861 -0.1940 0.0768 -0.0729 -2.0034 -0.1601 -0.0665 -1.9989 -0.1617 -1.0748 1.4096 -1.6518 2.6245 -0.8487 9.3936 -13.5986 -1.6646 0.5245 42.4875 11.6598 18.0945 0.9116 13.1950 -11.4288 -8.7371 -4.5790 24.9362 -2.2615 -8.8259 22.8736 -3.1559 6.3801 -6.1050 -4.8922 -4.7476 -1.7550 2.6199 -3.3538 6.3992 26.2790 10.4194 9.1157 9.4150 5.1711 0.9702 5.8600 4.1098 0.0353 19.2632 4.5008 5.0962 -2.7648 -2.9791 -0.5144 7.4019 8.7115 -6.2738 17.7573 4.0433 1.4688 1.8088 -2.4135 1.3798 13.6687 13.8025 -8.7720 8.4259 -0.0669 3.9463 1.6002 0.0895 1.2357 9.6031 11.7393 1.0240 -34.7163 -9.7795 18.8060 -0.2577 -15.8769 -14.0500 -1.4707 -3.3561 33.1345 -6.0175 14.5147 2.8796 3.3783 1.6776 6.3973 4.8253 5.4250 1.6163 -13.2726 -3.9496 4.8017 -20.5548 -8.6511 6.7222 -12.6549 -6.4874 2.0634 -14.2240 -10.4264 -3.0098 -12.7619 -2.8743 3.6883 -4.9367 -1.4869 1.2164 -12.6141 -12.3947 -8.9233 -13.9409 -3.3271 0.8612 -3.9751 -0.1460 2.1940 -19.1440 -16.1372 -8.6371 -9.7616 -2.1114 0.4537 -2.2099 -0.2001 1.2656 1.4851 3.0135 -8.0000 3.8893 9.2105 20.7516 -2.9752 3.1641 -11.6223 -0.0000 0.0000 -0.0937 -2.2453 -13.6260 -7.4587 -2.1676 -4.6418 15.1366 5.2870 -2.9506 -5.6702 -0.0000 0.0000 -0.2831 
0.4570 103.2857 1.4531 -1.6833 -1.0146 -0.7297 0.1607 -0.1591 0.1516 -0.1208 -1.9837 -0.0406 -0.1124 -1.9802 -0.0407 -0.9630 1.3260 -1.6563 2.8503 -0.9778 9.3555 -13.2492 -1.1468 0.5089 42.1518 11.8516 17.8404 0.9119 13.1938 -11.4277 -8.6887 -4.8355 24.7747 -2.2048 -8.7817 22.9099 -3.1567 6.3789 -6.1072 -4.8934 -4.7472 -1.7622 2.6786 -3.3210 6.4017 26.5241 10.4902 9.2203 9.3724 5.1534 0.9561 5.4465 3.9627 -0.0947 19.9633 4.6669 5.2562 -2.7069 -2.8611 -0.4788 7.1010 8.6171 -6.3951 18.6372 4.2043 1.6121 1.8856 -2.2947 1.4173 13.3113 13.7049 -8.9356 8.9362 -0.0108 3.9750 1.8222 0.1291 1.2497 9.5154 11.4619 0.9988 -34.7091 -10.7151 19.0105 -0.3011 -15.7157 -13.8898 -1.5627 -2.9569 32.8713 -6.0202 14.4824 2.8169 3.4285 1.6421 6.5054 4.8249 5.4457 1.7151 -13.2345 -3.9497 4.7710 -20.8232 -8.7414 6.8295 -12.9035 -6.5848 2.1506 -14.1595 -10.3978 -3.0180 -13.0242 -2.9439 3.7406 -4.9520 -1.4918 1.2192 -12.5541 -12.3507 -8.8876 -14.1097 -3.3601 0.8863 -3.9824 -0.1475 2.1948 -19.2596 -16.1383 -8.5099 -9.9994 -2.1524 0.4759 -2.2086 -0.1998 1.2655 1.2933 3.0370 -8.1895 3.9557 9.1761 21.3335 -2.7757 3.3843 -11.9684 -0.0000 -0.0000 -0.0895 -2.4166 -13.7652 -7.5383 -2.2061 -4.5148 15.2855 5.5192 -2.7047 -5.5467 -0.0000 0.0000 -0.2132 
